<svg width="200" height="200" viewBox="0 0 200 200" fill="none" xmlns="http://www.w3.org/2000/svg">
<path d="M154.243 185H100C53.1305 185 15 146.868 15 100C15 53.1324 53.1305 15 100 15C146.87 15 185 53.1324 185 100C185 122.153 176.616 142.925 161.327 158.828V177.917C161.327 181.828 158.155 185 154.243 185ZM100 29.1654C60.9417 29.1654 29.1673 60.9398 29.1673 99.9981C29.1673 139.056 60.9417 170.833 100 170.833H147.16V155.905C147.16 153.988 147.936 152.155 149.309 150.82C163.188 137.353 170.833 119.305 170.833 99.9981C170.833 60.9417 139.058 29.1654 100 29.1654Z" fill="#E858AF"/>
<path d="M50.0776 99.9999C50.0776 103.144 51.3268 106.16 53.5503 108.384C55.7738 110.607 58.7895 111.856 61.934 111.856C65.0785 111.856 68.0942 110.607 70.3177 108.384C72.5412 106.16 73.7904 103.144 73.7904 99.9999C73.7904 96.8554 72.5412 93.8397 70.3177 91.6162C68.0942 89.3927 65.0785 88.1436 61.934 88.1436C58.7895 88.1436 55.7738 89.3927 53.5503 91.6162C51.3268 93.8397 50.0776 96.8554 50.0776 99.9999Z" fill="#E858AF"/>
<path d="M88.1436 99.9999C88.1436 101.557 88.4502 103.099 89.0461 104.537C89.6419 105.976 90.5152 107.283 91.6162 108.384C92.7172 109.485 94.0242 110.358 95.4627 110.954C96.9012 111.55 98.4429 111.856 99.9999 111.856C101.557 111.856 103.099 111.55 104.537 110.954C105.976 110.358 107.283 109.485 108.384 108.384C109.485 107.283 110.358 105.976 110.954 104.537C111.55 103.099 111.856 101.557 111.856 99.9999C111.856 96.8554 110.607 93.8397 108.384 91.6162C106.16 89.3927 103.144 88.1436 99.9999 88.1436C96.8554 88.1436 93.8397 89.3927 91.6162 91.6162C89.3927 93.8397 88.1436 96.8554 88.1436 99.9999Z" fill="#E858AF"/>
<path d="M126.208 99.9999C126.208 103.144 127.457 106.16 129.68 108.384C131.904 110.607 134.92 111.856 138.064 111.856C141.209 111.856 144.224 110.607 146.448 108.384C148.671 106.16 149.92 103.144 149.92 99.9999C149.92 96.8554 148.671 93.8397 146.448 91.6162C144.224 89.3927 141.209 88.1436 138.064 88.1436C134.92 88.1436 131.904 89.3927 129.68 91.6162C127.457 93.8397 126.208 96.8554 126.208 99.9999Z" fill="#E858AF"/>
</svg>
